<svg xmlns="http://www.w3.org/2000/svg" xmlns:xlink="http://www.w3.org/1999/xlink" width="201.27215576171875" height="165.63902282714844" viewBox="0 0 201.27215576171875 165.63902282714844" fill="none"><g opacity="1"  transform="translate(1.10430908203125 0)  rotate(0)"><path id="H (轮廓)" fill-rule="evenodd" style="fill:#FFFFFF" opacity="0.5" d="M124.755,93.609l-8.79,71.53h44.11l17.84,-162.06998h-50.63l6.55,10.60998l-6.31,52.58h-52.3296l6.74,-63.18998h-52.75l8.67,7.68998l-17.88,154.38h44.12l8.13,-71.81h52.5696zM64.5354,165.639h-45.12l17.91,-154.68l-9.46,-8.38998h54.62l-6.74,63.18998h51.3296l6.24,-51.97l-6.93,-11.21998h52.09l-17.95,163.06998h-45.13l8.83,-71.81h-51.5496z"></path><path id="H" fill-rule="evenodd" fill="url(#linear_0)" opacity="1" d="M38.306 14.1011L46.106 21.0311L30.696 154.101L69.126 154.101L76.126 92.2611L120.966 92.2611L113.356 154.101L151.786 154.101L167.196 14.1011L122.966 14.1011L128.766 23.5011L123.366 68.5211L78.736 68.5211L84.536 14.1011L38.306 14.1011Z"></path><g id="路径 20" filter="url(#filter_3)"><path id="路径 20" fill-rule="evenodd" fill="url(#linear_1)" opacity="1" d="M119.946 92.8511C119.946 92.8511 138.016 93.7211 147.946 86.6011C157.876 79.4811 160.446 68.6011 160.446 68.6011L42.696 68.8511L40.196 92.8511L77.946 92.8511L119.946 92.8511Z"></path></g><g id="路径 19" filter="url(#filter_4)"><path id="路径 19" fill-rule="evenodd" fill="url(#linear_2)" opacity="1" d="M45.946 20.8511L30.446 154.601L69.696 154.601L76.196 92.1011L78.946 68.3511L84.696 14.1011L37.946 14.1011L45.946 20.8511Z"></path></g><g id="路径 19" filter="url(#filter_5)"><path id="路径 19" fill-rule="evenodd" fill="url(#linear_3)" opacity="1" d="M33.126 78.8411L25.696 143.101L44.506 143.101L47.626 113.071L48.936 101.661L51.696 75.6011L29.286 75.6011L33.126 78.8411Z"></path></g><g id="路径 20" filter="url(#filter_6)"><path id="路径 20" fill-rule="evenodd" fill="url(#linear_4)" opacity="1" d="M130.156 97.2511C130.156 97.2511 139.206 97.6911 144.186 94.1211C149.156 90.5511 150.446 85.1011 150.446 85.1011L91.446 85.2311L90.196 97.2511L109.106 97.2511L130.156 97.2511Z"></path></g><path id="椭圆形 (轮廓)" fill-rule="evenodd" fill="url(#linear_5)" opacity="1" d="M26.7906,21.599c-2.8982,0.5996 -5.3111,1.5026 -7.2478,2.7044c-1.9232,1.1973 -3.3387,2.6759 -4.2376,4.44c-0.8989,1.7642 -1.263,3.7785 -1.1013,6.0382c0.1661,2.2732 0.8539,4.756 2.0722,7.4531c1.2229,2.6882 2.9365,5.5366 5.1498,8.5498c2.2089,2.9998 4.8688,6.0835 7.9797,9.2735c3.1152,3.2034 6.6238,6.4277 10.5302,9.6863c3.9418,3.2992 8.206,6.5605 12.7879,9.793c4.6753,3.2913 9.6019,6.4861 14.784,9.5979c5.3112,3.1888 10.8024,6.2224 16.4782,9.1143c5.6757,2.8915 11.3576,5.5515 17.0591,7.9735c5.564,2.364 11.044,4.472 16.455,6.319c5.308,1.807 10.453,3.34 15.439,4.59c4.932,1.245 9.603,2.188 14.026,2.825c4.409,0.642 8.467,0.982 12.193,1.005c3.738,0.02 7.05,-0.268 9.944,-0.859c2.898,-0.599 5.311,-1.502 7.247,-2.704c1.924,-1.198 3.339,-2.676 4.238,-4.44c0.899,-1.765 1.263,-3.779 1.101,-6.038c-0.166,-2.274 -0.854,-4.756 -2.072,-7.4536c-1.223,-2.6881 -2.937,-5.5366 -5.15,-8.5498c-2.209,-2.9997 -4.869,-6.0834 -7.979,-9.2734c-3.116,-3.2034 -6.624,-6.4278 -10.531,-9.6864c-3.942,-3.2991 -8.206,-6.5605 -12.788,-9.7929c-4.675,-3.2913 -9.601,-6.4862 -14.784,-9.5979c-5.311,-3.1888 -10.802,-6.2225 -16.478,-9.1144c-5.675,-2.8919 -11.357,-5.5513 -17.059,-7.9738c-5.5635,-2.3634 -11.0439,-4.4712 -16.4547,-6.319c-5.3083,-1.8069 -10.4532,-3.3397 -15.4392,-4.5895c-4.9324,-1.245 -9.6032,-2.1883 -14.0259,-2.8256c-4.4093,-0.6417 -8.4675,-0.9811 -12.1928,-1.0049c-3.7386,-0.0195 -7.0503,0.2685 -9.9438,0.8592zM83.5319,99.1405c-46.1274,-23.5031 -77.08069,-55.2228 -69.1177,-70.851c7.9585,-15.6194 51.8186,-9.231 97.9458,14.2721c46.137,23.5076 77.076,55.2317 69.118,70.8514c-7.963,15.628 -51.81,9.235 -97.9461,-14.2725z"></path><g id="椭圆形 (轮廓)" filter="url(#filter_9)"><path id="椭圆形 (轮廓)" fill-rule="evenodd" fill="url(#linear_6)" opacity="1" d="M64.5388,34.5703c-4.9324,-1.245 -9.6032,-2.1883 -14.0259,-2.8256c-4.4093,-0.6417 -8.4675,-0.9811 -12.1928,-1.0049c-3.7386,-0.0195 -7.0503,0.2685 -9.9439,0.8592c-2.8981,0.5996 -5.311,1.5026 -7.2477,2.7044c-1.9232,1.1973 -3.3387,2.6759 -4.2376,4.44c-0.8989,1.7642 -1.263,3.7785 -1.1013,6.0382c0.1661,2.2732 0.8539,4.756 2.0722,7.4531c1.2229,2.6882 2.9365,5.5366 5.1498,8.5498c2.2089,2.9998 4.8688,6.0835 7.9797,9.2735c3.1152,3.2034 6.6238,6.4277 10.5302,9.6863c3.9418,3.2992 8.206,6.5605 12.7879,9.793c4.6753,3.2913 9.6019,6.4861 14.784,9.5979c5.3112,3.1888 10.8024,6.2228 16.4781,9.1148c5.6758,2.891 11.3577,5.551 17.0595,7.973c5.563,2.364 11.044,4.472 16.455,6.319c5.308,1.807 10.453,3.34 15.439,4.59c4.932,1.245 9.603,2.188 14.026,2.825c4.409,0.642 8.467,0.982 12.192,1.005c3.739,0.02 7.051,-0.268 9.944,-0.859c2.898,-0.599 5.311,-1.502 7.248,-2.704c1.923,-1.198 3.339,-2.676 4.238,-4.44c0.899,-1.765 1.263,-3.779 1.101,-6.038c-0.166,-2.274 -0.854,-4.756 -2.072,-7.454c-1.223,-2.688 -2.937,-5.536 -5.15,-8.549c-2.209,-3.0001 -4.869,-6.0838 -7.98,-9.2738c-3.115,-3.2034 -6.624,-6.4278 -10.53,-9.6864c-3.942,-3.2991 -8.206,-6.5605 -12.788,-9.7929c-4.675,-3.2913 -9.602,-6.4862 -14.784,-9.5979c-5.311,-3.1888 -10.802,-6.2225 -16.478,-9.1144c-5.676,-2.8919 -11.358,-5.5513 -17.0593,-7.9738c-5.5635,-2.3634 -11.0439,-4.4712 -16.4547,-6.319c-5.3083,-1.8069 -10.4532,-3.3397 -15.4392,-4.5895zM85.1176,109.141c-46.1274,-23.5036 -77.0807,-55.2233 -69.1177,-70.8515c7.9584,-15.6194 51.8186,-9.231 97.9461,14.2721c46.136,23.5076 77.076,55.2314 69.118,70.8514c-7.963,15.628 -51.81,9.235 -97.9464,-14.272z"></path></g></g><defs><linearGradient id="linear_0" x1="54.186046511627474%" y1="0%" x2="55.186046511627474%" y2="104.07407407407408%" gradientUnits="objectBoundingBox"><stop offset="0" stop-color="#247EF0" stop-opacity="1" /><stop offset="0.4419" stop-color="#F799AE" stop-opacity="1" /><stop offset="1" stop-color="#F6BE74" stop-opacity="1" /></linearGradient><linearGradient id="linear_1" x1="15.346000000000002%" y1="0%" x2="100%" y2="100%" gradientUnits="objectBoundingBox"><stop offset="0" stop-color="#247EF0" stop-opacity="1" /><stop offset="0.4419" stop-color="#F799AE" stop-opacity="1" /><stop offset="1" stop-color="#F6BE74" stop-opacity="1" /></linearGradient><filter id="filter_3" x="30.196044921875" y="57.60106658935547" width="140.25" height="46.28345150989665" filterUnits="userSpaceOnUse" color-interpolation-filters="sRGB"><feFlood flood-opacity="0" result="feFloodId"/>
          <feColorMatrix in="SourceAlpha" type="matrix" values="0 0 0 0 0 0 0 0 0 0 0 0 0 0 0 0 0 0 127 0" result="hardAlpha"/>
          
          <feOffset dx="0" dy="1"/>
          <feComposite in2="hardAlpha" operator="out"/>
          <feGaussianBlur stdDeviation="5"/>
          <feColorMatrix type="matrix" values="0 0 0 0 0.16470588235294117 0 0 0 0 0.09803921568627451 0 0 0 0 0.3176470588235294 0 0 0 0.3 0"/>
          <feBlend mode="normal" in2="filter_feFlood" result="filter_feFlood_1"/>
          <feBlend mode="normal" in="SourceGraphic" in2="filter_3" result="shape"/></filter><linearGradient id="linear_2" x1="54.186046511627474%" y1="0%" x2="55.186046511627474%" y2="104.07407407407408%" gradientUnits="objectBoundingBox"><stop offset="0" stop-color="#247EF0" stop-opacity="1" /><stop offset="0.4419" stop-color="#F799AE" stop-opacity="1" /><stop offset="1" stop-color="#F6BE74" stop-opacity="1" /></linearGradient><filter id="filter_4" x="20.446044921875" y="3.1010665893554688" width="74.25000000000003" height="162.5" filterUnits="userSpaceOnUse" color-interpolation-filters="sRGB"><feFlood flood-opacity="0" result="feFloodId"/>
          <feColorMatrix in="SourceAlpha" type="matrix" values="0 0 0 0 0 0 0 0 0 0 0 0 0 0 0 0 0 0 127 0" result="hardAlpha"/>
          
          <feOffset dx="0" dy="1"/>
          <feComposite in2="hardAlpha" operator="out"/>
          <feGaussianBlur stdDeviation="5"/>
          <feColorMatrix type="matrix" values="0 0 0 0 0.16470588235294117 0 0 0 0 0.09803921568627451 0 0 0 0 0.3176470588235294 0 0 0 0.3 0"/>
          <feBlend mode="normal" in2="filter_feFlood" result="filter_feFlood_1"/>
          <feBlend mode="normal" in="SourceGraphic" in2="filter_4" result="shape"/></filter><linearGradient id="linear_3" x1="50%" y1="0%" x2="0%" y2="104.521%" gradientUnits="objectBoundingBox"><stop offset="0" stop-color="#247EF0" stop-opacity="1" /><stop offset="0.4419" stop-color="#F799AE" stop-opacity="1" /><stop offset="1" stop-color="#F6BE74" stop-opacity="1" /></linearGradient><filter id="filter_5" x="15.696044921875" y="64.60106658935547" width="46.000000000000014" height="89.5" filterUnits="userSpaceOnUse" color-interpolation-filters="sRGB"><feFlood flood-opacity="0" result="feFloodId"/>
          <feColorMatrix in="SourceAlpha" type="matrix" values="0 0 0 0 0 0 0 0 0 0 0 0 0 0 0 0 0 0 127 0" result="hardAlpha"/>
          
          <feOffset dx="0" dy="1"/>
          <feComposite in2="hardAlpha" operator="out"/>
          <feGaussianBlur stdDeviation="5"/>
          <feColorMatrix type="matrix" values="0 0 0 0 0.16470588235294117 0 0 0 0 0.09803921568627451 0 0 0 0 0.3176470588235294 0 0 0 0.3 0"/>
          <feBlend mode="normal" in2="filter_feFlood" result="filter_feFlood_1"/>
          <feBlend mode="normal" in="SourceGraphic" in2="filter_5" result="shape"/></filter><linearGradient id="linear_4" x1="0%" y1="0%" x2="100%" y2="100%" gradientUnits="objectBoundingBox"><stop offset="0" stop-color="#F6BE74" stop-opacity="1" /><stop offset="0.5581" stop-color="#F799AE" stop-opacity="1" /><stop offset="1" stop-color="#247EF0" stop-opacity="1" /></linearGradient><filter id="filter_6" x="80.196044921875" y="74.10106658935547" width="80.25" height="34.16696842803553" filterUnits="userSpaceOnUse" color-interpolation-filters="sRGB"><feFlood flood-opacity="0" result="feFloodId"/>
          <feColorMatrix in="SourceAlpha" type="matrix" values="0 0 0 0 0 0 0 0 0 0 0 0 0 0 0 0 0 0 127 0" result="hardAlpha"/>
          
          <feOffset dx="0" dy="1"/>
          <feComposite in2="hardAlpha" operator="out"/>
          <feGaussianBlur stdDeviation="5"/>
          <feColorMatrix type="matrix" values="0 0 0 0 0.16470588235294117 0 0 0 0 0.09803921568627451 0 0 0 0 0.3176470588235294 0 0 0 0.3 0"/>
          <feBlend mode="normal" in2="filter_feFlood" result="filter_feFlood_1"/>
          <feBlend mode="normal" in="SourceGraphic" in2="filter_6" result="shape"/></filter><linearGradient id="linear_5" x1="96.69735059143035" y1="118.88324175963305" x2="125.52574666371093" y2="62.30432713678335" gradientUnits="userSpaceOnUse"><stop offset="0" stop-color="#FFB870" stop-opacity="1" /><stop offset="1" stop-color="#FF8D1A" stop-opacity="0" /></linearGradient><linearGradient id="linear_6" x1="93.17114405496089" y1="127.59798139579868" x2="121.99954012724149" y2="71.01906677294897" gradientUnits="userSpaceOnUse"><stop offset="0" stop-color="#707070" stop-opacity="0.2" /><stop offset="1" stop-color="#FFFFFF" stop-opacity="0" /></linearGradient><filter id="filter_9" x="29.414093017578125" y="9" width="189.5" height="65.5" filterUnits="userSpaceOnUse" color-interpolation-filters="sRGB"><feFlood flood-opacity="0" result="BackgroundImageFix"/>
          <feBlend mode="normal" in="SourceGraphic" in2="BackgroundImageFix" result="shape"/>
          <feGaussianBlur stdDeviation="0.5" result="effect1_foregroundBlur" /></filter></defs></svg>